<svg class="diagram-root" style="background: #f5f6f6" xmlns="http://www.w3.org/2000/svg" xmlns:xlink="http://www.w3.org/1999/xlink"><style>.diagram-root { font-family: "Helvetica Neue", sans-serif; font-size: 12px; } .t { overflow: visible; } .t-bg { y: 40; fill: #fff;   } .th { fill: #005aa0;   } .tht { fill: #fff; font-size: 14px;  } .tf { fill: #323c46; overflow: visible; } .tf.pk { fill: #005aa0; font-weight: bold; } .tf.fk { font-weight: bold; } .ty { fill: #adb1b5; font-weight: normal; text-anchor: end; } .r { fill: transparent; stroke: #c3c3c3; stroke-width: 1; } .l { stroke: 1; } .i { fill: #c2c7ce; stroke: #c2c7ce; } .i.ix { fill: #afb3b6; stroke: #000; } .fa { fill: transparent; overflow: visible; } .fa .bg.hover { fill: #f7f7f7; } .c { cy: 12; r: 4; stroke: #d2d2dc; fill: #d2d2dc; } .hr { fill: transparent; stroke: #323c46; stroke-opacity: 0.035; stroke-width: 13; } .dc { stroke: #fa5a3c; fill: #fa5a3c; } .x { stroke: white; stroke-width: 1; } .hl .th { fill: #1b9bff; } .hl .tht {  } .fhl .bg { fill: #e7f4ff; } .fhls .bg {  } .r.hl { stroke: #1b9bff; } .dim { opacity: 0.25; }</style><g class="drawing-wrapper" transform="translate(-11.333333333333336, 61.10666666666666) scale(1,1)"><g class="rs"><path d="M 436.82 127 m -1, 0 a 1,1 0 1,0 2,0 a 1,1 0 1,0 -2,0 M 436.82 127 m -0.5, 0 a 0.5,0.5 0 1,0 1,0 a 0.5,0.5 0 1,0 -1,0  M436.82 127 L436.82 127 448.82 127 M 436.82 133 m -1, 0 a 1,1 0 1,0 2,0 a 1,1 0 1,0 -2,0 M 436.82 133 m -0.5, 0 a 0.5,0.5 0 1,0 1,0 a 0.5,0.5 0 1,0 -1,0  M436.82 133 L436.82 133 443.82 127 436.82 121 M 436.82 121 m -1, 0 a 1,1 0 1,0 2,0 a 1,1 0 1,0 -2,0 M 436.82 121 m -0.5, 0 a 0.5,0.5 0 1,0 1,0 a 0.5,0.5 0 1,0 -1,0  M448.82 127 Q 475 127, 501.18 76.44 T 553.55 25.89 M 565.55 25.89 m -1, 0 a 1,1 0 1,0 2,0 a 1,1 0 1,0 -2,0 M 565.55 25.89 m -0.5, 0 a 0.5,0.5 0 1,0 1,0 a 0.5,0.5 0 1,0 -1,0  M565.55 25.89 L565.55 25.89 553.55 25.89 M559.55 31.89 L559.55 31.89 559.55 19.89" id="h4123789742" class="r"></path><path d="M 316.11 152 m -1, 0 a 1,1 0 1,0 2,0 a 1,1 0 1,0 -2,0 M 316.11 152 m -0.5, 0 a 0.5,0.5 0 1,0 1,0 a 0.5,0.5 0 1,0 -1,0  M316.11 152 L316.11 152 304.11 152 M 316.11 158 m -1, 0 a 1,1 0 1,0 2,0 a 1,1 0 1,0 -2,0 M 316.11 158 m -0.5, 0 a 0.5,0.5 0 1,0 1,0 a 0.5,0.5 0 1,0 -1,0  M316.11 158 L316.11 158 309.11 152 316.11 146 M 316.11 146 m -1, 0 a 1,1 0 1,0 2,0 a 1,1 0 1,0 -2,0 M 316.11 146 m -0.5, 0 a 0.5,0.5 0 1,0 1,0 a 0.5,0.5 0 1,0 -1,0  M304.11 152 Q 275.93 152, 247.74 96.72 T 191.37 41.44 M 179.37 41.44 m -1, 0 a 1,1 0 1,0 2,0 a 1,1 0 1,0 -2,0 M 179.37 41.44 m -0.5, 0 a 0.5,0.5 0 1,0 1,0 a 0.5,0.5 0 1,0 -1,0  M179.37 41.44 L179.37 41.44 191.37 41.44 M185.37 47.44 L185.37 47.44 185.37 35.44" id="h3559049542" class="r"></path><path d="M 436.82 177 m -1, 0 a 1,1 0 1,0 2,0 a 1,1 0 1,0 -2,0 M 436.82 177 m -0.5, 0 a 0.5,0.5 0 1,0 1,0 a 0.5,0.5 0 1,0 -1,0  M436.82 177 L436.82 177 448.82 177 M 436.82 183 m -1, 0 a 1,1 0 1,0 2,0 a 1,1 0 1,0 -2,0 M 436.82 183 m -0.5, 0 a 0.5,0.5 0 1,0 1,0 a 0.5,0.5 0 1,0 -1,0  M436.82 183 L436.82 183 443.82 177 436.82 171 M 436.82 171 m -1, 0 a 1,1 0 1,0 2,0 a 1,1 0 1,0 -2,0 M 436.82 171 m -0.5, 0 a 0.5,0.5 0 1,0 1,0 a 0.5,0.5 0 1,0 -1,0  M448.82 177 C 498.82 177, 592.954 330.33, 291.93 330.33 M 279.93 330.33 m -1, 0 a 1,1 0 1,0 2,0 a 1,1 0 1,0 -2,0 M 279.93 330.33 m -0.5, 0 a 0.5,0.5 0 1,0 1,0 a 0.5,0.5 0 1,0 -1,0  M279.93 330.33 L279.93 330.33 291.93 330.33 M285.93 336.33 L285.93 336.33 285.93 324.33" id="h3089693579" class="r"></path></g><g class="hrs"></g><g class="ts"><svg width="146.04" height="100" x="33.33" y="-15.56" id="h41485699" class="t"><rect height="40" width="146.04" class="th"></rect><text x="13" y="25" class="tht">Regions</text><rect height="60" width="146.04" class="t-bg"></rect><text x="13" y="61" class="tf pk">id<tspan x="133.04" class="ty">int</tspan></text><path d="M7,14A2,2 0 0,1 5,12A2,2 0 0,1 7,10A2,2 0 0,1 9,12A2,2 0 0,1 7,14M12.65,10C11.83,7.67 9.61,6 7, 6A6, 6 0 0, 0 1, 12A6, 6 0 0, 0 7, 18C9.61, 18 11.83, 16.33 12.65, 14H17V18H21V14H23V10H12.65Z" class="i pk" transform="translate(100.36617187499999, 48) scale(0.65)"></path><text x="13" y="86" class="tf">Name<tspan x="133.04" class="ty">varchar(200)</tspan></text></svg><svg width="120.71" height="225" x="316.11" y="-30" id="h1611266215" class="t"><rect height="40" width="120.71" class="th"></rect><text x="13" y="25" class="tht">Posts</text><rect height="185" width="120.71" class="t-bg"></rect><text x="13" y="61" class="tf pk">id<tspan x="107.71" class="ty">int</tspan></text><path d="M7,14A2,2 0 0,1 5,12A2,2 0 0,1 7,10A2,2 0 0,1 9,12A2,2 0 0,1 7,14M12.65,10C11.83,7.67 9.61,6 7, 6A6, 6 0 0, 0 1, 12A6, 6 0 0, 0 7, 18C9.61, 18 11.83, 16.33 12.65, 14H17V18H21V14H23V10H12.65Z" class="i pk" transform="translate(75.036171875, 48) scale(0.65)"></path><text x="13" y="86" class="tf">title<tspan x="107.71" class="ty">string</tspan></text><text x="13" y="111" class="tf">text<tspan x="107.71" class="ty">int</tspan></text><text x="13" y="136" class="tf">location<tspan x="107.71" class="ty">int</tspan></text><text x="13" y="161" class="tf fk">user_id<tspan x="107.71" class="ty">int</tspan></text><text x="13" y="186" class="tf fk">region_id<tspan x="107.71" class="ty">int</tspan></text><text x="13" y="211" class="tf fk">category_id<tspan x="107.71" class="ty">int</tspan></text></svg><svg width="169.4" height="150" x="565.55" y="-31.11" id="h3889921393" class="t"><rect height="40" width="169.4" class="th"></rect><text x="13" y="25" class="tht">Users</text><rect height="110" width="169.4" class="t-bg"></rect><text x="13" y="61" class="tf pk">id<tspan x="156.4" class="ty">int</tspan></text><path d="M7,14A2,2 0 0,1 5,12A2,2 0 0,1 7,10A2,2 0 0,1 9,12A2,2 0 0,1 7,14M12.65,10C11.83,7.67 9.61,6 7, 6A6, 6 0 0, 0 1, 12A6, 6 0 0, 0 7, 18C9.61, 18 11.83, 16.33 12.65, 14H17V18H21V14H23V10H12.65Z" class="i pk" transform="translate(123.726171875, 48) scale(0.65)"></path><text x="13" y="86" class="tf">username<tspan x="156.4" class="ty">varcar(30)</tspan></text><text x="13" y="111" class="tf">encrypted_password<tspan x="156.4" class="ty">int</tspan></text><text x="13" y="136" class="tf fk">preferred_region_id<tspan x="156.4" class="ty">int</tspan></text></svg><svg width="146.04" height="100" x="133.89" y="273.33" id="h1234641711" class="t"><rect height="40" width="146.04" class="th"></rect><text x="13" y="25" class="tht">Categories</text><rect height="60" width="146.04" class="t-bg"></rect><text x="13" y="61" class="tf pk">id<tspan x="133.04" class="ty">int</tspan></text><path d="M7,14A2,2 0 0,1 5,12A2,2 0 0,1 7,10A2,2 0 0,1 9,12A2,2 0 0,1 7,14M12.65,10C11.83,7.67 9.61,6 7, 6A6, 6 0 0, 0 1, 12A6, 6 0 0, 0 7, 18C9.61, 18 11.83, 16.33 12.65, 14H17V18H21V14H23V10H12.65Z" class="i pk" transform="translate(100.36617187499999, 48) scale(0.65)"></path><text x="13" y="86" class="tf">Name<tspan x="133.04" class="ty">varchar(200)</tspan></text></svg></g></g><text class="qdbd-link" x="10" y="20">www.quickdatabasediagrams.com</text></svg>