<svg class="diagram-root" style="background: #f5f6f6" xmlns="http://www.w3.org/2000/svg" xmlns:xlink="http://www.w3.org/1999/xlink"><style>.diagram-root { font-family: "Helvetica Neue", sans-serif; font-size: 12px; } .t { overflow: visible; } .t-bg { y: 40; fill: #fff;   } .th { fill: #005aa0;   } .tht { fill: #fff; font-size: 14px;  } .tf { fill: #323c46; overflow: visible; } .tf.pk { fill: #005aa0; font-weight: bold; } .tf.fk { font-weight: bold; } .ty { fill: #adb1b5; font-weight: normal; text-anchor: end; } .r { fill: transparent; stroke: #c3c3c3; stroke-width: 1; } .l { stroke: 1; } .i { fill: #c2c7ce; stroke: #c2c7ce; } .i.ix { fill: #afb3b6; stroke: #000; } .fa { fill: transparent; overflow: visible; } .fa .bg.hover { fill: #f7f7f7; } .c { cy: 12; r: 4; stroke: #d2d2dc; fill: #d2d2dc; } .hr { fill: transparent; stroke: #323c46; stroke-opacity: 0.035; stroke-width: 13; } .dc { stroke: #fa5a3c; fill: #fa5a3c; } .x { stroke: white; stroke-width: 1; } .hl .th { fill: #1b9bff; } .hl .tht {  } .fhl .bg { fill: #e7f4ff; } .fhls .bg {  } .r.hl { stroke: #1b9bff; } .dim { opacity: 0.25; }</style><g class="drawing-wrapper" transform="translate(-37.440000000000005, 44.107777777777784) scale(1,1)"><g class="rs"><path d="M 350.33 97.67 m -1, 0 a 1,1 0 1,0 2,0 a 1,1 0 1,0 -2,0 M 350.33 97.67 m -0.5, 0 a 0.5,0.5 0 1,0 1,0 a 0.5,0.5 0 1,0 -1,0  M350.33 97.67 L350.33 97.67 338.33 97.67 M 350.33 103.67 m -1, 0 a 1,1 0 1,0 2,0 a 1,1 0 1,0 -2,0 M 350.33 103.67 m -0.5, 0 a 0.5,0.5 0 1,0 1,0 a 0.5,0.5 0 1,0 -1,0  M350.33 103.67 L350.33 103.67 343.33 97.67 350.33 91.67 M 350.33 91.67 m -1, 0 a 1,1 0 1,0 2,0 a 1,1 0 1,0 -2,0 M 350.33 91.67 m -0.5, 0 a 0.5,0.5 0 1,0 1,0 a 0.5,0.5 0 1,0 -1,0  M338.33 97.67 Q 312.29 97.67, 286.25 70.28 T 234.16 42.89 M 222.16 42.89 m -1, 0 a 1,1 0 1,0 2,0 a 1,1 0 1,0 -2,0 M 222.16 42.89 m -0.5, 0 a 0.5,0.5 0 1,0 1,0 a 0.5,0.5 0 1,0 -1,0  M222.16 42.89 L222.16 42.89 234.16 42.89 M228.16 48.89 L228.16 48.89 228.16 36.89" id="h3365778033" class="r"></path><path d="M 457.71 122.67 m -1, 0 a 1,1 0 1,0 2,0 a 1,1 0 1,0 -2,0 M 457.71 122.67 m -0.5, 0 a 0.5,0.5 0 1,0 1,0 a 0.5,0.5 0 1,0 -1,0  M457.71 122.67 L457.71 122.67 469.71 122.67 M 457.71 128.67000000000002 m -1, 0 a 1,1 0 1,0 2,0 a 1,1 0 1,0 -2,0 M 457.71 128.67000000000002 m -0.5, 0 a 0.5,0.5 0 1,0 1,0 a 0.5,0.5 0 1,0 -1,0  M457.71 128.67000000000002 L457.71 128.67000000000002 464.71 122.67 457.71 116.67 M 457.71 116.67 m -1, 0 a 1,1 0 1,0 2,0 a 1,1 0 1,0 -2,0 M 457.71 116.67 m -0.5, 0 a 0.5,0.5 0 1,0 1,0 a 0.5,0.5 0 1,0 -1,0  M469.71 122.67 Q 490.73 122.67, 511.75 90.73 T 553.78 58.78 M 565.78 58.78 m -1, 0 a 1,1 0 1,0 2,0 a 1,1 0 1,0 -2,0 M 565.78 58.78 m -0.5, 0 a 0.5,0.5 0 1,0 1,0 a 0.5,0.5 0 1,0 -1,0  M565.78 58.78 L565.78 58.78 553.78 58.78 M559.78 64.78 L559.78 64.78 559.78 52.78" id="h1528940817" class="r"></path><path d="M 373.89 336.45 m -1, 0 a 1,1 0 1,0 2,0 a 1,1 0 1,0 -2,0 M 373.89 336.45 m -0.5, 0 a 0.5,0.5 0 1,0 1,0 a 0.5,0.5 0 1,0 -1,0  M373.89 336.45 L373.89 336.45 361.89 336.45 M 373.89 342.45 m -1, 0 a 1,1 0 1,0 2,0 a 1,1 0 1,0 -2,0 M 373.89 342.45 m -0.5, 0 a 0.5,0.5 0 1,0 1,0 a 0.5,0.5 0 1,0 -1,0  M373.89 342.45 L373.89 342.45 366.89 336.45 373.89 330.45 M 373.89 330.45 m -1, 0 a 1,1 0 1,0 2,0 a 1,1 0 1,0 -2,0 M 373.89 330.45 m -0.5, 0 a 0.5,0.5 0 1,0 1,0 a 0.5,0.5 0 1,0 -1,0  M361.89 336.45 C 274.19399999999996 336.45, 288.33 72.67, 338.33 72.67 M 350.33 72.67 m -1, 0 a 1,1 0 1,0 2,0 a 1,1 0 1,0 -2,0 M 350.33 72.67 m -0.5, 0 a 0.5,0.5 0 1,0 1,0 a 0.5,0.5 0 1,0 -1,0  M350.33 72.67 L350.33 72.67 338.33 72.67 M344.33 78.67 L344.33 78.67 344.33 66.67" id="h3785198165" class="r"></path><path d="M 373.89 361.45 m -1, 0 a 1,1 0 1,0 2,0 a 1,1 0 1,0 -2,0 M 373.89 361.45 m -0.5, 0 a 0.5,0.5 0 1,0 1,0 a 0.5,0.5 0 1,0 -1,0  M373.89 361.45 L373.89 361.45 361.89 361.45 M 373.89 367.45 m -1, 0 a 1,1 0 1,0 2,0 a 1,1 0 1,0 -2,0 M 373.89 367.45 m -0.5, 0 a 0.5,0.5 0 1,0 1,0 a 0.5,0.5 0 1,0 -1,0  M373.89 367.45 L373.89 367.45 366.89 361.45 373.89 355.45 M 373.89 355.45 m -1, 0 a 1,1 0 1,0 2,0 a 1,1 0 1,0 -2,0 M 373.89 355.45 m -0.5, 0 a 0.5,0.5 0 1,0 1,0 a 0.5,0.5 0 1,0 -1,0  M361.89 361.45 Q 319.37 361.45, 276.85 339.23 T 191.8 317 M 179.8 317 m -1, 0 a 1,1 0 1,0 2,0 a 1,1 0 1,0 -2,0 M 179.8 317 m -0.5, 0 a 0.5,0.5 0 1,0 1,0 a 0.5,0.5 0 1,0 -1,0  M179.8 317 L179.8 317 191.8 317 M185.8 323 L185.8 323 185.8 311" id="h4023665356" class="r"></path></g><g class="hrs"></g><g class="ts"><svg width="146.04" height="150" x="565.78" y="1.78" id="h3676580549" class="t"><rect height="40" width="146.04" class="th"></rect><text x="13" y="25" class="tht">Patients</text><rect height="110" width="146.04" class="t-bg"></rect><text x="13" y="61" class="tf pk">id<tspan x="133.04" class="ty">int</tspan></text><path d="M7,14A2,2 0 0,1 5,12A2,2 0 0,1 7,10A2,2 0 0,1 9,12A2,2 0 0,1 7,14M12.65,10C11.83,7.67 9.61,6 7, 6A6, 6 0 0, 0 1, 12A6, 6 0 0, 0 7, 18C9.61, 18 11.83, 16.33 12.65, 14H17V18H21V14H23V10H12.65Z" class="i pk" transform="translate(100.36617187499999, 48) scale(0.65)"></path><text x="13" y="86" class="tf">Name<tspan x="133.04" class="ty">varchar(200)</tspan></text><text x="13" y="111" class="tf">insurance<tspan x="133.04" class="ty">string</tspan></text><text x="13" y="136" class="tf">birthday<tspan x="133.04" class="ty">date</tspan></text></svg><svg width="118.7" height="125" x="61.1" y="260" id="h1794948770" class="t"><rect height="40" width="118.7" class="th"></rect><text x="13" y="25" class="tht">Diseases</text><rect height="85" width="118.7" class="t-bg"></rect><text x="13" y="61" class="tf pk">id<tspan x="105.7" class="ty">int</tspan></text><path d="M7,14A2,2 0 0,1 5,12A2,2 0 0,1 7,10A2,2 0 0,1 9,12A2,2 0 0,1 7,14M12.65,10C11.83,7.67 9.61,6 7, 6A6, 6 0 0, 0 1, 12A6, 6 0 0, 0 7, 18C9.61, 18 11.83, 16.33 12.65, 14H17V18H21V14H23V10H12.65Z" class="i pk" transform="translate(73.026171875, 48) scale(0.65)"></path><text x="13" y="86" class="tf">Name<tspan x="105.7" class="ty">string</tspan></text><text x="13" y="111" class="tf">Description<tspan x="105.7" class="ty">int</tspan></text></svg><svg width="107.38" height="150" x="350.33" y="15.67" id="h3280351983" class="t"><rect height="40" width="107.38" class="th"></rect><text x="13" y="25" class="tht">Visits</text><rect height="110" width="107.38" class="t-bg"></rect><text x="13" y="61" class="tf pk">id<tspan x="94.38" class="ty">int</tspan></text><path d="M7,14A2,2 0 0,1 5,12A2,2 0 0,1 7,10A2,2 0 0,1 9,12A2,2 0 0,1 7,14M12.65,10C11.83,7.67 9.61,6 7, 6A6, 6 0 0, 0 1, 12A6, 6 0 0, 0 7, 18C9.61, 18 11.83, 16.33 12.65, 14H17V18H21V14H23V10H12.65Z" class="i pk" transform="translate(61.706171874999995, 48) scale(0.65)"></path><text x="13" y="86" class="tf fk">doctor.id<tspan x="94.38" class="ty">int</tspan></text><text x="13" y="111" class="tf fk">patient.id<tspan x="94.38" class="ty">int</tspan></text><text x="13" y="136" class="tf">date<tspan x="94.38" class="ty">date</tspan></text></svg><svg width="162.72" height="125" x="59.44" y="-14.11" id="h16875077" class="t"><rect height="40" width="162.72" class="th"></rect><text x="13" y="25" class="tht">Doctors</text><rect height="85" width="162.72" class="t-bg"></rect><text x="13" y="61" class="tf pk">id<tspan x="149.72" class="ty">int</tspan></text><path d="M7,14A2,2 0 0,1 5,12A2,2 0 0,1 7,10A2,2 0 0,1 9,12A2,2 0 0,1 7,14M12.65,10C11.83,7.67 9.61,6 7, 6A6, 6 0 0, 0 1, 12A6, 6 0 0, 0 7, 18C9.61, 18 11.83, 16.33 12.65, 14H17V18H21V14H23V10H12.65Z" class="i pk" transform="translate(117.046171875, 48) scale(0.65)"></path><text x="13" y="86" class="tf">Name<tspan x="149.72" class="ty">varchar(200)</tspan></text><text x="13" y="111" class="tf">Specialty<tspan x="149.72" class="ty">varchar(200)</tspan></text></svg><svg width="116.05" height="150" x="373.89" y="254.45" id="h3621607512" class="t"><rect height="40" width="116.05" class="th"></rect><text x="13" y="25" class="tht">Diagnosis</text><rect height="110" width="116.05" class="t-bg"></rect><text x="13" y="61" class="tf pk">id<tspan x="103.05" class="ty">int</tspan></text><path d="M7,14A2,2 0 0,1 5,12A2,2 0 0,1 7,10A2,2 0 0,1 9,12A2,2 0 0,1 7,14M12.65,10C11.83,7.67 9.61,6 7, 6A6, 6 0 0, 0 1, 12A6, 6 0 0, 0 7, 18C9.61, 18 11.83, 16.33 12.65, 14H17V18H21V14H23V10H12.65Z" class="i pk" transform="translate(70.376171875, 48) scale(0.65)"></path><text x="13" y="86" class="tf fk">visit_id<tspan x="103.05" class="ty">int</tspan></text><text x="13" y="111" class="tf fk">disease_id<tspan x="103.05" class="ty">int</tspan></text><text x="13" y="136" class="tf">notes<tspan x="103.05" class="ty">int</tspan></text></svg></g></g><text class="qdbd-link" x="10" y="20">www.quickdatabasediagrams.com</text></svg>