<svg class="diagram-root" style="background: #f5f6f6" xmlns="http://www.w3.org/2000/svg" xmlns:xlink="http://www.w3.org/1999/xlink"><style>.diagram-root { font-family: "Helvetica Neue", sans-serif; font-size: 12px; } .t { overflow: visible; } .t-bg { y: 40; fill: #fff;   } .th { fill: #005aa0;   } .tht { fill: #fff; font-size: 14px;  } .tf { fill: #323c46; overflow: visible; } .tf.pk { fill: #005aa0; font-weight: bold; } .tf.fk { font-weight: bold; } .ty { fill: #adb1b5; font-weight: normal; text-anchor: end; } .r { fill: transparent; stroke: #c3c3c3; stroke-width: 1; } .l { stroke: 1; } .i { fill: #c2c7ce; stroke: #c2c7ce; } .i.ix { fill: #afb3b6; stroke: #000; } .fa { fill: transparent; overflow: visible; } .fa .bg.hover { fill: #f7f7f7; } .c { cy: 12; r: 4; stroke: #d2d2dc; fill: #d2d2dc; } .hr { fill: transparent; stroke: #323c46; stroke-opacity: 0.035; stroke-width: 13; } .dc { stroke: #fa5a3c; fill: #fa5a3c; } .x { stroke: white; stroke-width: 1; } .hl .th { fill: #1b9bff; } .hl .tht {  } .fhl .bg { fill: #e7f4ff; } .fhls .bg {  } .r.hl { stroke: #1b9bff; } .dim { opacity: 0.25; }</style><g class="drawing-wrapper" transform="translate(60.892222222222244, 113.3288888888889) scale(1,1)"><g class="rs"><path d="M -34.44 388.67 m -1, 0 a 1,1 0 1,0 2,0 a 1,1 0 1,0 -2,0 M -34.44 388.67 m -0.5, 0 a 0.5,0.5 0 1,0 1,0 a 0.5,0.5 0 1,0 -1,0  M-34.44 388.67 L-34.44 388.67 -46.44 388.67 M -34.44 394.67 m -1, 0 a 1,1 0 1,0 2,0 a 1,1 0 1,0 -2,0 M -34.44 394.67 m -0.5, 0 a 0.5,0.5 0 1,0 1,0 a 0.5,0.5 0 1,0 -1,0  M-34.44 394.67 L-34.44 394.67 -41.44 388.67 -34.44 382.67 M -34.44 382.67 m -1, 0 a 1,1 0 1,0 2,0 a 1,1 0 1,0 -2,0 M -34.44 382.67 m -0.5, 0 a 0.5,0.5 0 1,0 1,0 a 0.5,0.5 0 1,0 -1,0  M-46.44 388.67 C -103.56 388.67, -100.89 12.549999999999997, -50.89 12.549999999999997 M -38.89 12.549999999999997 m -1, 0 a 1,1 0 1,0 2,0 a 1,1 0 1,0 -2,0 M -38.89 12.549999999999997 m -0.5, 0 a 0.5,0.5 0 1,0 1,0 a 0.5,0.5 0 1,0 -1,0  M-38.89 12.549999999999997 L-38.89 12.549999999999997 -50.89 12.549999999999997 M-44.89 18.549999999999997 L-44.89 18.549999999999997 -44.89 6.549999999999997" id="h3944580499" class="r"></path><path d="M 72.93 413.67 m -1, 0 a 1,1 0 1,0 2,0 a 1,1 0 1,0 -2,0 M 72.93 413.67 m -0.5, 0 a 0.5,0.5 0 1,0 1,0 a 0.5,0.5 0 1,0 -1,0  M72.93 413.67 L72.93 413.67 84.93 413.67 M 72.93 419.67 m -1, 0 a 1,1 0 1,0 2,0 a 1,1 0 1,0 -2,0 M 72.93 419.67 m -0.5, 0 a 0.5,0.5 0 1,0 1,0 a 0.5,0.5 0 1,0 -1,0  M72.93 419.67 L72.93 419.67 79.93 413.67 72.93 407.67 M 72.93 407.67 m -1, 0 a 1,1 0 1,0 2,0 a 1,1 0 1,0 -2,0 M 72.93 407.67 m -0.5, 0 a 0.5,0.5 0 1,0 1,0 a 0.5,0.5 0 1,0 -1,0  M84.93 413.67 Q 125.14 413.67, 165.35 374.78 T 245.76999999999998 335.88 M 257.77 335.88 m -1, 0 a 1,1 0 1,0 2,0 a 1,1 0 1,0 -2,0 M 257.77 335.88 m -0.5, 0 a 0.5,0.5 0 1,0 1,0 a 0.5,0.5 0 1,0 -1,0  M257.77 335.88 L257.77 335.88 245.76999999999998 335.88 M251.76999999999998 341.88 L251.76999999999998 341.88 251.76999999999998 329.88" id="h3228109841" class="r"></path><path d="M 302.78 73.67 m -1, 0 a 1,1 0 1,0 2,0 a 1,1 0 1,0 -2,0 M 302.78 73.67 m -0.5, 0 a 0.5,0.5 0 1,0 1,0 a 0.5,0.5 0 1,0 -1,0  M302.78 73.67 L302.78 73.67 290.78 73.67 M 302.78 79.67 m -1, 0 a 1,1 0 1,0 2,0 a 1,1 0 1,0 -2,0 M 302.78 79.67 m -0.5, 0 a 0.5,0.5 0 1,0 1,0 a 0.5,0.5 0 1,0 -1,0  M302.78 79.67 L302.78 79.67 295.78 73.67 302.78 67.67 M 302.78 67.67 m -1, 0 a 1,1 0 1,0 2,0 a 1,1 0 1,0 -2,0 M 302.78 67.67 m -0.5, 0 a 0.5,0.5 0 1,0 1,0 a 0.5,0.5 0 1,0 -1,0  M290.78 73.67 Q 247.87 73.67, 204.96 43.11 T 119.15 12.549999999999997 M 107.15 12.549999999999997 m -1, 0 a 1,1 0 1,0 2,0 a 1,1 0 1,0 -2,0 M 107.15 12.549999999999997 m -0.5, 0 a 0.5,0.5 0 1,0 1,0 a 0.5,0.5 0 1,0 -1,0  M107.15 12.549999999999997 L107.15 12.549999999999997 119.15 12.549999999999997 M113.15 18.549999999999997 L113.15 18.549999999999997 113.15 6.549999999999997" id="h1147781925" class="r"></path><path d="M 257.77 360.88 m -1, 0 a 1,1 0 1,0 2,0 a 1,1 0 1,0 -2,0 M 257.77 360.88 m -0.5, 0 a 0.5,0.5 0 1,0 1,0 a 0.5,0.5 0 1,0 -1,0  M257.77 360.88 L257.77 360.88 245.76999999999998 360.88 M 257.77 366.88 m -1, 0 a 1,1 0 1,0 2,0 a 1,1 0 1,0 -2,0 M 257.77 366.88 m -0.5, 0 a 0.5,0.5 0 1,0 1,0 a 0.5,0.5 0 1,0 -1,0  M257.77 366.88 L257.77 366.88 250.76999999999998 360.88 257.77 354.88 M 257.77 354.88 m -1, 0 a 1,1 0 1,0 2,0 a 1,1 0 1,0 -2,0 M 257.77 354.88 m -0.5, 0 a 0.5,0.5 0 1,0 1,0 a 0.5,0.5 0 1,0 -1,0  M245.76999999999998 360.88 Q 214.12 360.88, 182.46 186.72 T 119.15 12.549999999999997 M 107.15 12.549999999999997 m -1, 0 a 1,1 0 1,0 2,0 a 1,1 0 1,0 -2,0 M 107.15 12.549999999999997 m -0.5, 0 a 0.5,0.5 0 1,0 1,0 a 0.5,0.5 0 1,0 -1,0  M107.15 12.549999999999997 L107.15 12.549999999999997 119.15 12.549999999999997 M113.15 18.549999999999997 L113.15 18.549999999999997 113.15 6.549999999999997" id="h1236431044" class="r"></path><path d="M 257.77 385.88 m -1, 0 a 1,1 0 1,0 2,0 a 1,1 0 1,0 -2,0 M 257.77 385.88 m -0.5, 0 a 0.5,0.5 0 1,0 1,0 a 0.5,0.5 0 1,0 -1,0  M257.77 385.88 L257.77 385.88 245.76999999999998 385.88 M 257.77 391.88 m -1, 0 a 1,1 0 1,0 2,0 a 1,1 0 1,0 -2,0 M 257.77 391.88 m -0.5, 0 a 0.5,0.5 0 1,0 1,0 a 0.5,0.5 0 1,0 -1,0  M257.77 391.88 L257.77 391.88 250.76999999999998 385.88 257.77 379.88 M 257.77 379.88 m -1, 0 a 1,1 0 1,0 2,0 a 1,1 0 1,0 -2,0 M 257.77 379.88 m -0.5, 0 a 0.5,0.5 0 1,0 1,0 a 0.5,0.5 0 1,0 -1,0  M245.76999999999998 385.88 Q 214.12 385.88, 182.46 199.22 T 119.15 12.549999999999997 M 107.15 12.549999999999997 m -1, 0 a 1,1 0 1,0 2,0 a 1,1 0 1,0 -2,0 M 107.15 12.549999999999997 m -0.5, 0 a 0.5,0.5 0 1,0 1,0 a 0.5,0.5 0 1,0 -1,0  M107.15 12.549999999999997 L107.15 12.549999999999997 119.15 12.549999999999997 M113.15 18.549999999999997 L113.15 18.549999999999997 113.15 6.549999999999997" id="h3180108495" class="r"></path><path d="M 437.86 485.88 m -1, 0 a 1,1 0 1,0 2,0 a 1,1 0 1,0 -2,0 M 437.86 485.88 m -0.5, 0 a 0.5,0.5 0 1,0 1,0 a 0.5,0.5 0 1,0 -1,0  M437.86 485.88 L437.86 485.88 449.86 485.88 M 437.86 491.88 m -1, 0 a 1,1 0 1,0 2,0 a 1,1 0 1,0 -2,0 M 437.86 491.88 m -0.5, 0 a 0.5,0.5 0 1,0 1,0 a 0.5,0.5 0 1,0 -1,0  M437.86 491.88 L437.86 491.88 444.86 485.88 437.86 479.88 M 437.86 479.88 m -1, 0 a 1,1 0 1,0 2,0 a 1,1 0 1,0 -2,0 M 437.86 479.88 m -0.5, 0 a 0.5,0.5 0 1,0 1,0 a 0.5,0.5 0 1,0 -1,0  M449.86 485.88 C 811.6360000000001 485.88, 694.72 391.44, 644.72 391.44 M 632.72 391.44 m -1, 0 a 1,1 0 1,0 2,0 a 1,1 0 1,0 -2,0 M 632.72 391.44 m -0.5, 0 a 0.5,0.5 0 1,0 1,0 a 0.5,0.5 0 1,0 -1,0  M632.72 391.44 L632.72 391.44 644.72 391.44 M638.72 397.44 L638.72 397.44 638.72 385.44" id="h2372472583" class="r"></path><path d="M 257.77 510.88 m -1, 0 a 1,1 0 1,0 2,0 a 1,1 0 1,0 -2,0 M 257.77 510.88 m -0.5, 0 a 0.5,0.5 0 1,0 1,0 a 0.5,0.5 0 1,0 -1,0  M257.77 510.88 L257.77 510.88 245.76999999999998 510.88 M 257.77 516.88 m -1, 0 a 1,1 0 1,0 2,0 a 1,1 0 1,0 -2,0 M 257.77 516.88 m -0.5, 0 a 0.5,0.5 0 1,0 1,0 a 0.5,0.5 0 1,0 -1,0  M257.77 516.88 L257.77 516.88 250.76999999999998 510.88 257.77 504.88 M 257.77 504.88 m -1, 0 a 1,1 0 1,0 2,0 a 1,1 0 1,0 -2,0 M 257.77 504.88 m -0.5, 0 a 0.5,0.5 0 1,0 1,0 a 0.5,0.5 0 1,0 -1,0  M245.76999999999998 510.88 Q 215.37 510.88, 184.96 368.39 T 124.15 225.89 M 112.15 225.89 m -1, 0 a 1,1 0 1,0 2,0 a 1,1 0 1,0 -2,0 M 112.15 225.89 m -0.5, 0 a 0.5,0.5 0 1,0 1,0 a 0.5,0.5 0 1,0 -1,0  M112.15 225.89 L112.15 225.89 124.15 225.89 M118.15 231.89 L118.15 231.89 118.15 219.89" id="h1334428857" class="r"></path><path d="M 257.77 535.88 m -1, 0 a 1,1 0 1,0 2,0 a 1,1 0 1,0 -2,0 M 257.77 535.88 m -0.5, 0 a 0.5,0.5 0 1,0 1,0 a 0.5,0.5 0 1,0 -1,0  M257.77 535.88 L257.77 535.88 245.76999999999998 535.88 M 257.77 541.88 m -1, 0 a 1,1 0 1,0 2,0 a 1,1 0 1,0 -2,0 M 257.77 541.88 m -0.5, 0 a 0.5,0.5 0 1,0 1,0 a 0.5,0.5 0 1,0 -1,0  M257.77 541.88 L257.77 541.88 250.76999999999998 535.88 257.77 529.88 M 257.77 529.88 m -1, 0 a 1,1 0 1,0 2,0 a 1,1 0 1,0 -2,0 M 257.77 529.88 m -0.5, 0 a 0.5,0.5 0 1,0 1,0 a 0.5,0.5 0 1,0 -1,0  M245.76999999999998 535.88 Q 215.37 535.88, 184.96 380.89 T 124.15 225.89 M 112.15 225.89 m -1, 0 a 1,1 0 1,0 2,0 a 1,1 0 1,0 -2,0 M 112.15 225.89 m -0.5, 0 a 0.5,0.5 0 1,0 1,0 a 0.5,0.5 0 1,0 -1,0  M112.15 225.89 L112.15 225.89 124.15 225.89 M118.15 231.89 L118.15 231.89 118.15 219.89" id="h624278286" class="r"></path><path d="M 257.77 560.88 m -1, 0 a 1,1 0 1,0 2,0 a 1,1 0 1,0 -2,0 M 257.77 560.88 m -0.5, 0 a 0.5,0.5 0 1,0 1,0 a 0.5,0.5 0 1,0 -1,0  M257.77 560.88 L257.77 560.88 245.76999999999998 560.88 M 257.77 566.88 m -1, 0 a 1,1 0 1,0 2,0 a 1,1 0 1,0 -2,0 M 257.77 566.88 m -0.5, 0 a 0.5,0.5 0 1,0 1,0 a 0.5,0.5 0 1,0 -1,0  M257.77 566.88 L257.77 566.88 250.76999999999998 560.88 257.77 554.88 M 257.77 554.88 m -1, 0 a 1,1 0 1,0 2,0 a 1,1 0 1,0 -2,0 M 257.77 554.88 m -0.5, 0 a 0.5,0.5 0 1,0 1,0 a 0.5,0.5 0 1,0 -1,0  M245.76999999999998 560.88 Q 215.37 560.88, 184.96 393.39 T 124.15 225.89 M 112.15 225.89 m -1, 0 a 1,1 0 1,0 2,0 a 1,1 0 1,0 -2,0 M 112.15 225.89 m -0.5, 0 a 0.5,0.5 0 1,0 1,0 a 0.5,0.5 0 1,0 -1,0  M112.15 225.89 L112.15 225.89 124.15 225.89 M118.15 231.89 L118.15 231.89 118.15 219.89" id="h991030597" class="r"></path><path d="M 561.12 24.22 m -1, 0 a 1,1 0 1,0 2,0 a 1,1 0 1,0 -2,0 M 561.12 24.22 m -0.5, 0 a 0.5,0.5 0 1,0 1,0 a 0.5,0.5 0 1,0 -1,0  M561.12 24.22 L561.12 24.22 549.12 24.22 M 561.12 30.22 m -1, 0 a 1,1 0 1,0 2,0 a 1,1 0 1,0 -2,0 M 561.12 30.22 m -0.5, 0 a 0.5,0.5 0 1,0 1,0 a 0.5,0.5 0 1,0 -1,0  M561.12 30.22 L561.12 30.22 554.12 24.22 561.12 18.22 M 561.12 18.22 m -1, 0 a 1,1 0 1,0 2,0 a 1,1 0 1,0 -2,0 M 561.12 18.22 m -0.5, 0 a 0.5,0.5 0 1,0 1,0 a 0.5,0.5 0 1,0 -1,0  M549.12 24.22 Q 527.05 24.22, 504.97 -1.05 T 460.82 -26.33 M 448.82 -26.33 m -1, 0 a 1,1 0 1,0 2,0 a 1,1 0 1,0 -2,0 M 448.82 -26.33 m -0.5, 0 a 0.5,0.5 0 1,0 1,0 a 0.5,0.5 0 1,0 -1,0  M448.82 -26.33 L448.82 -26.33 460.82 -26.33 M454.82 -20.33 L454.82 -20.33 454.82 -32.33" id="h2561147591" class="r"></path><path d="M 561.12 49.22 m -1, 0 a 1,1 0 1,0 2,0 a 1,1 0 1,0 -2,0 M 561.12 49.22 m -0.5, 0 a 0.5,0.5 0 1,0 1,0 a 0.5,0.5 0 1,0 -1,0  M561.12 49.22 L561.12 49.22 549.12 49.22 M 561.12 55.22 m -1, 0 a 1,1 0 1,0 2,0 a 1,1 0 1,0 -2,0 M 561.12 55.22 m -0.5, 0 a 0.5,0.5 0 1,0 1,0 a 0.5,0.5 0 1,0 -1,0  M561.12 55.22 L561.12 55.22 554.12 49.22 561.12 43.22 M 561.12 43.22 m -1, 0 a 1,1 0 1,0 2,0 a 1,1 0 1,0 -2,0 M 561.12 43.22 m -0.5, 0 a 0.5,0.5 0 1,0 1,0 a 0.5,0.5 0 1,0 -1,0  M549.12 49.22 Q 524.31 49.22, 499.49 192.55 T 449.86 335.88 M 437.86 335.88 m -1, 0 a 1,1 0 1,0 2,0 a 1,1 0 1,0 -2,0 M 437.86 335.88 m -0.5, 0 a 0.5,0.5 0 1,0 1,0 a 0.5,0.5 0 1,0 -1,0  M437.86 335.88 L437.86 335.88 449.86 335.88 M443.86 341.88 L443.86 341.88 443.86 329.88" id="h883084757" class="r"></path><path d="M 577.78 222 m -1, 0 a 1,1 0 1,0 2,0 a 1,1 0 1,0 -2,0 M 577.78 222 m -0.5, 0 a 0.5,0.5 0 1,0 1,0 a 0.5,0.5 0 1,0 -1,0  M577.78 222 L577.78 222 565.78 222 M 577.78 228 m -1, 0 a 1,1 0 1,0 2,0 a 1,1 0 1,0 -2,0 M 577.78 228 m -0.5, 0 a 0.5,0.5 0 1,0 1,0 a 0.5,0.5 0 1,0 -1,0  M577.78 228 L577.78 228 570.78 222 577.78 216 M 577.78 216 m -1, 0 a 1,1 0 1,0 2,0 a 1,1 0 1,0 -2,0 M 577.78 216 m -0.5, 0 a 0.5,0.5 0 1,0 1,0 a 0.5,0.5 0 1,0 -1,0  M565.78 222 Q 539.54 222, 513.3 97.84 T 460.82 -26.33 M 448.82 -26.33 m -1, 0 a 1,1 0 1,0 2,0 a 1,1 0 1,0 -2,0 M 448.82 -26.33 m -0.5, 0 a 0.5,0.5 0 1,0 1,0 a 0.5,0.5 0 1,0 -1,0  M448.82 -26.33 L448.82 -26.33 460.82 -26.33 M454.82 -20.33 L454.82 -20.33 454.82 -32.33" id="h1914947893" class="r"></path><path d="M 577.78 247 m -1, 0 a 1,1 0 1,0 2,0 a 1,1 0 1,0 -2,0 M 577.78 247 m -0.5, 0 a 0.5,0.5 0 1,0 1,0 a 0.5,0.5 0 1,0 -1,0  M577.78 247 L577.78 247 565.78 247 M 577.78 253 m -1, 0 a 1,1 0 1,0 2,0 a 1,1 0 1,0 -2,0 M 577.78 253 m -0.5, 0 a 0.5,0.5 0 1,0 1,0 a 0.5,0.5 0 1,0 -1,0  M577.78 253 L577.78 253 570.78 247 577.78 241 M 577.78 241 m -1, 0 a 1,1 0 1,0 2,0 a 1,1 0 1,0 -2,0 M 577.78 241 m -0.5, 0 a 0.5,0.5 0 1,0 1,0 a 0.5,0.5 0 1,0 -1,0  M565.78 247 Q 536.8 247, 507.82 291.44 T 449.86 335.88 M 437.86 335.88 m -1, 0 a 1,1 0 1,0 2,0 a 1,1 0 1,0 -2,0 M 437.86 335.88 m -0.5, 0 a 0.5,0.5 0 1,0 1,0 a 0.5,0.5 0 1,0 -1,0  M437.86 335.88 L437.86 335.88 449.86 335.88 M443.86 341.88 L443.86 341.88 443.86 329.88" id="h2105621532" class="r"></path><path d="M 577.78 272 m -1, 0 a 1,1 0 1,0 2,0 a 1,1 0 1,0 -2,0 M 577.78 272 m -0.5, 0 a 0.5,0.5 0 1,0 1,0 a 0.5,0.5 0 1,0 -1,0  M577.78 272 L577.78 272 565.78 272 M 577.78 278 m -1, 0 a 1,1 0 1,0 2,0 a 1,1 0 1,0 -2,0 M 577.78 278 m -0.5, 0 a 0.5,0.5 0 1,0 1,0 a 0.5,0.5 0 1,0 -1,0  M577.78 278 L577.78 278 570.78 272 577.78 266 M 577.78 266 m -1, 0 a 1,1 0 1,0 2,0 a 1,1 0 1,0 -2,0 M 577.78 266 m -0.5, 0 a 0.5,0.5 0 1,0 1,0 a 0.5,0.5 0 1,0 -1,0  M565.78 272 Q 454.13 272, 342.47 142.28 T 119.15 12.549999999999997 M 107.15 12.549999999999997 m -1, 0 a 1,1 0 1,0 2,0 a 1,1 0 1,0 -2,0 M 107.15 12.549999999999997 m -0.5, 0 a 0.5,0.5 0 1,0 1,0 a 0.5,0.5 0 1,0 -1,0  M107.15 12.549999999999997 L107.15 12.549999999999997 119.15 12.549999999999997 M113.15 18.549999999999997 L113.15 18.549999999999997 113.15 6.549999999999997" id="h526408140" class="r"></path></g><g class="hrs"></g><g class="ts"><svg width="146.04" height="125" x="-38.89" y="-44.45" id="h2309628436" class="t"><rect height="40" width="146.04" class="th"></rect><text x="13" y="25" class="tht">Tems</text><rect height="85" width="146.04" class="t-bg"></rect><text x="13" y="61" class="tf pk">id<tspan x="133.04" class="ty">int</tspan></text><path d="M7,14A2,2 0 0,1 5,12A2,2 0 0,1 7,10A2,2 0 0,1 9,12A2,2 0 0,1 7,14M12.65,10C11.83,7.67 9.61,6 7, 6A6, 6 0 0, 0 1, 12A6, 6 0 0, 0 7, 18C9.61, 18 11.83, 16.33 12.65, 14H17V18H21V14H23V10H12.65Z" class="i pk" transform="translate(100.36617187499999, 48) scale(0.65)"></path><text x="13" y="86" class="tf">Name<tspan x="133.04" class="ty">varchar(200)</tspan></text><text x="13" y="111" class="tf">City<tspan x="133.04" class="ty">varchar(200)</tspan></text></svg><svg width="146.04" height="100" x="-33.89" y="168.89" id="h332749422" class="t"><rect height="40" width="146.04" class="th"></rect><text x="13" y="25" class="tht">Referees</text><rect height="60" width="146.04" class="t-bg"></rect><text x="13" y="61" class="tf pk">id<tspan x="133.04" class="ty">int</tspan></text><path d="M7,14A2,2 0 0,1 5,12A2,2 0 0,1 7,10A2,2 0 0,1 9,12A2,2 0 0,1 7,14M12.65,10C11.83,7.67 9.61,6 7, 6A6, 6 0 0, 0 1, 12A6, 6 0 0, 0 7, 18C9.61, 18 11.83, 16.33 12.65, 14H17V18H21V14H23V10H12.65Z" class="i pk" transform="translate(100.36617187499999, 48) scale(0.65)"></path><text x="13" y="86" class="tf">Name<tspan x="133.04" class="ty">varchar(200)</tspan></text></svg><svg width="107.37" height="150" x="-34.44" y="306.67" id="h1488401382" class="t"><rect height="40" width="107.37" class="th"></rect><text x="13" y="25" class="tht">Results</text><rect height="110" width="107.37" class="t-bg"></rect><text x="13" y="61" class="tf pk">id<tspan x="94.37" class="ty">int</tspan></text><path d="M7,14A2,2 0 0,1 5,12A2,2 0 0,1 7,10A2,2 0 0,1 9,12A2,2 0 0,1 7,14M12.65,10C11.83,7.67 9.61,6 7, 6A6, 6 0 0, 0 1, 12A6, 6 0 0, 0 7, 18C9.61, 18 11.83, 16.33 12.65, 14H17V18H21V14H23V10H12.65Z" class="i pk" transform="translate(61.696171875000005, 48) scale(0.65)"></path><text x="13" y="86" class="tf fk">team_id<tspan x="94.37" class="ty">int</tspan></text><text x="13" y="111" class="tf fk">match_id<tspan x="94.37" class="ty">int</tspan></text><text x="13" y="136" class="tf">results<tspan x="94.37" class="ty">int</tspan></text></svg><svg width="146.04" height="175" x="302.78" y="-83.33" id="h4103274130" class="t"><rect height="40" width="146.04" class="th"></rect><text x="13" y="25" class="tht">Players</text><rect height="135" width="146.04" class="t-bg"></rect><text x="13" y="61" class="tf pk">id<tspan x="133.04" class="ty">int</tspan></text><path d="M7,14A2,2 0 0,1 5,12A2,2 0 0,1 7,10A2,2 0 0,1 9,12A2,2 0 0,1 7,14M12.65,10C11.83,7.67 9.61,6 7, 6A6, 6 0 0, 0 1, 12A6, 6 0 0, 0 7, 18C9.61, 18 11.83, 16.33 12.65, 14H17V18H21V14H23V10H12.65Z" class="i pk" transform="translate(100.36617187499999, 48) scale(0.65)"></path><text x="13" y="86" class="tf">Name<tspan x="133.04" class="ty">varchar(200)</tspan></text><text x="13" y="111" class="tf">birtday<tspan x="133.04" class="ty">date</tspan></text><text x="13" y="136" class="tf">height<tspan x="133.04" class="ty">float</tspan></text><text x="13" y="161" class="tf fk">current_team_id<tspan x="133.04" class="ty">int</tspan></text></svg><svg width="180.09" height="300" x="257.77" y="278.88" id="h3829905542" class="t"><rect height="40" width="180.09" class="th"></rect><text x="13" y="25" class="tht">Matches</text><rect height="260" width="180.09" class="t-bg"></rect><text x="13" y="61" class="tf pk">id<tspan x="167.09" class="ty">int</tspan></text><path d="M7,14A2,2 0 0,1 5,12A2,2 0 0,1 7,10A2,2 0 0,1 9,12A2,2 0 0,1 7,14M12.65,10C11.83,7.67 9.61,6 7, 6A6, 6 0 0, 0 1, 12A6, 6 0 0, 0 7, 18C9.61, 18 11.83, 16.33 12.65, 14H17V18H21V14H23V10H12.65Z" class="i pk" transform="translate(134.416171875, 48) scale(0.65)"></path><text x="13" y="86" class="tf fk">home_team_id<tspan x="167.09" class="ty">int</tspan></text><text x="13" y="111" class="tf fk">away_team_id<tspan x="167.09" class="ty">int</tspan></text><text x="13" y="136" class="tf">location<tspan x="167.09" class="ty">int</tspan></text><text x="13" y="161" class="tf">date<tspan x="167.09" class="ty">int</tspan></text><text x="13" y="186" class="tf">start_time<tspan x="167.09" class="ty">int</tspan></text><text x="13" y="211" class="tf fk">season_id<tspan x="167.09" class="ty">int</tspan></text><text x="13" y="236" class="tf fk">head_referee_id<tspan x="167.09" class="ty">int</tspan></text><text x="13" y="261" class="tf fk">assistant_referee_1_id<tspan x="167.09" class="ty">int</tspan></text><text x="13" y="286" class="tf fk">assistant_referee_2_id<tspan x="167.09" class="ty">int</tspan></text></svg><svg width="107.37" height="125" x="561.12" y="-57.78" id="h2207534861" class="t"><rect height="40" width="107.37" class="th"></rect><text x="13" y="25" class="tht">Goals</text><rect height="85" width="107.37" class="t-bg"></rect><text x="13" y="61" class="tf pk">id<tspan x="94.37" class="ty">int</tspan></text><path d="M7,14A2,2 0 0,1 5,12A2,2 0 0,1 7,10A2,2 0 0,1 9,12A2,2 0 0,1 7,14M12.65,10C11.83,7.67 9.61,6 7, 6A6, 6 0 0, 0 1, 12A6, 6 0 0, 0 7, 18C9.61, 18 11.83, 16.33 12.65, 14H17V18H21V14H23V10H12.65Z" class="i pk" transform="translate(61.696171875000005, 48) scale(0.65)"></path><text x="13" y="86" class="tf fk">player_id<tspan x="94.37" class="ty">int</tspan></text><text x="13" y="111" class="tf fk">match_id<tspan x="94.37" class="ty">int</tspan></text></svg><svg width="107.37" height="150" x="577.78" y="140" id="h1247361070" class="t"><rect height="40" width="107.37" class="th"></rect><text x="13" y="25" class="tht">Lineups</text><rect height="110" width="107.37" class="t-bg"></rect><text x="13" y="61" class="tf pk">id<tspan x="94.37" class="ty">int</tspan></text><path d="M7,14A2,2 0 0,1 5,12A2,2 0 0,1 7,10A2,2 0 0,1 9,12A2,2 0 0,1 7,14M12.65,10C11.83,7.67 9.61,6 7, 6A6, 6 0 0, 0 1, 12A6, 6 0 0, 0 7, 18C9.61, 18 11.83, 16.33 12.65, 14H17V18H21V14H23V10H12.65Z" class="i pk" transform="translate(61.696171875000005, 48) scale(0.65)"></path><text x="13" y="86" class="tf fk">player_id<tspan x="94.37" class="ty">int</tspan></text><text x="13" y="111" class="tf fk">match_id<tspan x="94.37" class="ty">int</tspan></text><text x="13" y="136" class="tf fk">team_id<tspan x="94.37" class="ty">int</tspan></text></svg><svg width="122.72" height="125" x="510" y="334.44" id="h3133071897" class="t"><rect height="40" width="122.72" class="th"></rect><text x="13" y="25" class="tht">Season</text><rect height="85" width="122.72" class="t-bg"></rect><text x="13" y="61" class="tf pk">id<tspan x="109.72" class="ty">int</tspan></text><path d="M7,14A2,2 0 0,1 5,12A2,2 0 0,1 7,10A2,2 0 0,1 9,12A2,2 0 0,1 7,14M12.65,10C11.83,7.67 9.61,6 7, 6A6, 6 0 0, 0 1, 12A6, 6 0 0, 0 7, 18C9.61, 18 11.83, 16.33 12.65, 14H17V18H21V14H23V10H12.65Z" class="i pk" transform="translate(77.046171875, 48) scale(0.65)"></path><text x="13" y="86" class="tf">start_date<tspan x="109.72" class="ty">date</tspan></text><text x="13" y="111" class="tf">end_date<tspan x="109.72" class="ty">date</tspan></text></svg></g></g><text class="qdbd-link" x="10" y="20">www.quickdatabasediagrams.com</text></svg>